<svg xmlns="http://www.w3.org/2000/svg" xmlns:xlink="http://www.w3.org/1999/xlink" width="262.548" height="51.722" viewBox="0 0 262.548 51.722"><defs><clipPath id="clip-path"><rect id="Rectangle_266" data-name="Rectangle 266" width="262.548" height="51.722" fill="none"></rect></clipPath></defs><g id="Group_289" data-name="Group 289" transform="translate(0 0)"><rect id="Rectangle_262" data-name="Rectangle 262" width="10.094" height="29.479" transform="translate(19.663 16.01)" fill="#963696"></rect><rect id="Rectangle_263" data-name="Rectangle 263" width="10.071" height="29.456" transform="translate(38.241 16.033)" fill="#636263"></rect><rect id="Rectangle_264" data-name="Rectangle 264" width="10.039" height="29.488" transform="translate(1.611 16.027)" fill="#636263"></rect><g id="Group_288" data-name="Group 288" transform="translate(0 0)"><g id="Group_287" data-name="Group 287" clip-path="url(#clip-path)"><path id="Path_81" data-name="Path 81" d="M28.634,12.994A6.421,6.421,0,0,1,22.088,6.7c0-.067,0-.135,0-.2a6.514,6.514,0,0,1,13.028.032,6.4,6.4,0,0,1-6.337,6.463h-.145" transform="translate(-3.963 0)" fill="#963696"></path><path id="Path_82" data-name="Path 82" d="M51.29,12.99a6.4,6.4,0,0,1-6.506-6.3c0-.046,0-.093,0-.139a6.5,6.5,0,0,1,13-.015,6.416,6.416,0,0,1-6.377,6.455H51.29" transform="translate(-8.036 -0.008)" fill="#636263"></path><path id="Path_83" data-name="Path 83" d="M6.539,12.988A6.477,6.477,0,1,1,6.415.036c.064,0,.129,0,.194,0a6.413,6.413,0,0,1,6.435,6.392c0,.043,0,.088,0,.131A6.389,6.389,0,0,1,6.7,12.992c-.052,0-.1,0-.156,0" transform="translate(0 -0.007)" fill="#636263"></path><path id="Path_84" data-name="Path 84" d="M69.63,49.543V24.251H87.713v3.661H73.707v7.059H87.146v3.7H73.707v7.21H87.713v3.662Z" transform="translate(-12.494 -4.352)" fill="#646364"></path><path id="Path_85" data-name="Path 85" d="M95.942,50.889V32.127h3.737v3.51h.151a6.52,6.52,0,0,1,6.418-3.888c3.285,0,5.323,1.51,6.229,3.888h.113c.868-1.964,2.793-3.888,6.493-3.888,4.832,0,6.984,3.1,6.984,7.36V50.889H121.99V40.016c0-3.359-1.02-4.756-4.417-4.756-3.1,0-4.53,1.283-4.53,4.718v10.91h-4.077V40.016c0-3.359-1.02-4.756-4.417-4.756-3.1,0-4.53,1.283-4.53,4.68V50.889Z" transform="translate(-17.216 -5.698)" fill="#646364"></path><path id="Path_86" data-name="Path 86" d="M137.2,57.419V32.126h3.7v3.1h.189c.868-2.19,3.02-3.473,6.267-3.473,5.285,0,8.192,3.813,8.192,9.777,0,5.927-2.831,9.739-7.927,9.739-3.359,0-5.435-1.547-6.267-3.284h-.113v9.437Zm9.173-9.626c3.587,0,5.1-1.661,5.1-6.267,0-4.644-1.471-6.3-5.1-6.3-3.322,0-5.134,1.472-5.134,4.6v3.36c0,3.133,1.813,4.6,5.134,4.6" transform="translate(-24.62 -5.697)" fill="#646364"></path><rect id="Rectangle_265" data-name="Rectangle 265" width="4.077" height="25.292" transform="translate(134.174 19.899)" fill="#646364"></rect><path id="Path_87" data-name="Path 87" d="M172.255,41.488c0-5.814,3.587-9.739,9.361-9.739,5.738,0,9.212,3.926,9.212,9.739,0,5.851-3.473,9.777-9.212,9.777-5.774,0-9.361-3.926-9.361-9.777m14.647,0c0-4.19-1.359-6.116-5.286-6.116-3.963,0-5.361,1.926-5.361,6.116,0,4.228,1.4,6.153,5.361,6.153,3.927,0,5.286-1.926,5.286-6.153" transform="translate(-30.909 -5.697)" fill="#646364"></path><path id="Path_88" data-name="Path 88" d="M197.464,57.049V53.727h2.567c1.623,0,2.189-.264,2.794-1.661l.717-1.585L195.577,32.21h4.492l3.775,9.1,1.7,4.077h.3l1.548-4.077,3.436-9.1h4.492L206.449,53.2c-1.4,3.322-3.208,4.191-6.153,4.191a11.647,11.647,0,0,1-2.831-.34" transform="translate(-35.094 -5.78)" fill="#646364"></path><path id="Path_89" data-name="Path 89" d="M226.958,49.543l-5.851-25.292h4.681l3.133,14.232,1.095,6.983h.3l1.624-6.983,4.19-14.232h5.7l4.19,14.232,1.624,6.983h.3l1.095-6.983,3.171-14.232h4.606l-5.889,25.292H245l-3.85-12.873-2.039-7.852h-.34l-2.038,7.852-3.85,12.873Z" transform="translate(-39.675 -4.352)" fill="#963696"></path><path id="Path_90" data-name="Path 90" d="M267.19,28.4l-.038-4.153h4.077V28.4Zm0,2.265h4.077V49.543H267.19Z" transform="translate(-47.938 -4.352)" fill="#963696"></path><path id="Path_91" data-name="Path 91" d="M276.022,44.546V44.47h3.926v.679c0,2.039.906,2.794,4.492,2.794,3.02,0,3.587-.679,3.587-2.077,0-1.509-.907-1.962-3.662-2.453l-2.906-.491c-3.36-.6-5.474-2.114-5.474-5.511s2.793-5.663,7.7-5.663c4.417,0,7.739,2.189,7.739,6.455v.34h-3.888v-.453c0-1.736-.6-2.983-3.964-2.983-2.983,0-3.7.793-3.7,2.228s.68,1.85,3.322,2.378l3.171.6c3.624.717,5.512,2.34,5.512,5.436,0,3.473-2.755,5.511-7.512,5.511-5.473,0-8.343-2.152-8.343-6.719" transform="translate(-49.522 -5.697)" fill="#963696"></path><path id="Path_92" data-name="Path 92" d="M298.431,41.488c0-5.814,3.473-9.739,9.061-9.739,5.059,0,8.607,3.02,8.607,8.154a14.668,14.668,0,0,1-.226,2.568H302.244c.151,3.435,1.4,5.171,5.322,5.171,3.134,0,4.342-1.057,4.342-2.755v-.3h4.04v.34c0,3.85-3.359,6.341-8.418,6.341-6.191,0-9.1-3.926-9.1-9.777m3.851-1.736h9.929c.15-3.209-1.586-4.568-4.795-4.568-3.549,0-4.908,1.661-5.134,4.568" transform="translate(-53.55 -5.697)" fill="#963696"></path></g></g></g></svg>